<svg xmlns="http://www.w3.org/2000/svg" width="900" height="600" viewBox="0 0 900 600" role="img" aria-labelledby="title desc">
  <title id="title">Model 75 actual vs predicted prices</title>
  <desc id="desc">Scatter plot comparing actual test-set prices with predicted prices.</desc>
  <rect width="100%" height="100%" fill="#ffffff" />
  <style>
    text { font-family: Arial, Helvetica, sans-serif; fill: #17202a; }
    .muted { fill: #657383; font-size: 14px; }
    .axis { stroke: #657383; stroke-width: 1.4; }
    .grid { stroke: #d8e0e8; stroke-width: 1; }
    .perfect { stroke: #b42318; stroke-width: 2.2; stroke-dasharray: 8 7; }
    circle { fill: #0f766e; stroke: #17202a; stroke-width: 1; opacity: 0.88; }
  </style>
  <text x="450.0" y="30" text-anchor="middle" font-size="22" font-weight="700">Model 75: Test Set Actual vs Predicted Prices</text>
  <text x="450.0" y="52" text-anchor="middle" class="muted">Perfect predictions fall on the red dashed line.</text>
  <g class="grid">
    <line x1="82" y1="522.00" x2="866" y2="522.00" /><line x1="82" y1="405.00" x2="866" y2="405.00" /><line x1="82" y1="288.00" x2="866" y2="288.00" /><line x1="82" y1="171.00" x2="866" y2="171.00" /><line x1="82" y1="54.00" x2="866" y2="54.00" />
    <line x1="82.00" y1="54" x2="82.00" y2="522" /><line x1="278.00" y1="54" x2="278.00" y2="522" /><line x1="474.00" y1="54" x2="474.00" y2="522" /><line x1="670.00" y1="54" x2="670.00" y2="522" /><line x1="866.00" y1="54" x2="866.00" y2="522" />
  </g>
  <line class="perfect" x1="82.00" y1="522.00" x2="866.00" y2="54.00" />
  <g class="axis">
    <line x1="82" y1="522" x2="866" y2="522" />
    <line x1="82" y1="54" x2="82" y2="522" />
  </g>
  <g class="muted" text-anchor="middle">
        <g>
          <line x1="82.00" y1="522" x2="82.00" y2="528" />
          <text x="82.00" y="550">$0</text>
        </g>
        

        <g>
          <line x1="278.00" y1="522" x2="278.00" y2="528" />
          <text x="278.00" y="550">$7,853</text>
        </g>
        

        <g>
          <line x1="474.00" y1="522" x2="474.00" y2="528" />
          <text x="474.00" y="550">$15,706</text>
        </g>
        

        <g>
          <line x1="670.00" y1="522" x2="670.00" y2="528" />
          <text x="670.00" y="550">$23,559</text>
        </g>
        

        <g>
          <line x1="866.00" y1="522" x2="866.00" y2="528" />
          <text x="866.00" y="550">$31,413</text>
        </g>
        </g>
  <g class="muted" text-anchor="end">
        <g>
          <line x1="76" y1="522.00" x2="82" y2="522.00" />
          <text x="70" y="527.00">$0</text>
        </g>
        

        <g>
          <line x1="76" y1="405.00" x2="82" y2="405.00" />
          <text x="70" y="410.00">$7,853</text>
        </g>
        

        <g>
          <line x1="76" y1="288.00" x2="82" y2="288.00" />
          <text x="70" y="293.00">$15,706</text>
        </g>
        

        <g>
          <line x1="76" y1="171.00" x2="82" y2="171.00" />
          <text x="70" y="176.00">$23,559</text>
        </g>
        

        <g>
          <line x1="76" y1="54.00" x2="82" y2="54.00" />
          <text x="70" y="59.00">$31,413</text>
        </g>
        </g>
  <g><circle cx="144.40" cy="499.01" r="5.5"><title>Car 90: actual $2,500, predicted $1,543</title></circle>
<circle cx="241.73" cy="418.38" r="5.5"><title>Car 26: actual $6,400, predicted $6,955</title></circle>
<circle cx="810.78" cy="127.52" r="5.5"><title>Car 72: actual $29,200, predicted $26,478</title></circle>
<circle cx="294.14" cy="385.32" r="5.5"><title>Car 85: actual $8,500, predicted $9,174</title></circle>
<circle cx="171.85" cy="481.80" r="5.5"><title>Car 78: actual $3,600, predicted $2,698</title></circle>
<circle cx="144.40" cy="481.61" r="5.5"><title>Car 65: actual $2,500, predicted $2,711</title></circle>
<circle cx="718.43" cy="142.78" r="5.5"><title>Car 30: actual $25,500, predicted $25,453</title></circle>
<circle cx="453.88" cy="299.95" r="5.5"><title>Car 28: actual $14,900, predicted $14,904</title></circle>
<circle cx="309.12" cy="352.53" r="5.5"><title>Car 89: actual $9,100, predicted $11,375</title></circle>
<circle cx="591.15" cy="209.10" r="5.5"><title>Car 98: actual $20,400, predicted $21,002</title></circle>
<circle cx="433.91" cy="313.41" r="5.5"><title>Car 5: actual $14,100, predicted $14,001</title></circle>
<circle cx="306.62" cy="368.77" r="5.5"><title>Car 55: actual $9,000, predicted $10,285</title></circle>
<circle cx="698.47" cy="130.57" r="5.5"><title>Car 76: actual $24,700, predicted $26,273</title></circle>
<circle cx="364.03" cy="322.24" r="5.5"><title>Car 12: actual $11,300, predicted $13,408</title></circle>
<circle cx="266.69" cy="420.88" r="5.5"><title>Car 70: actual $7,400, predicted $6,787</title></circle>
<circle cx="406.46" cy="337.79" r="5.5"><title>Car 87: actual $13,000, predicted $12,365</title></circle>
<circle cx="171.85" cy="426.12" r="5.5"><title>Car 14: actual $3,600, predicted $6,436</title></circle>
<circle cx="391.48" cy="303.87" r="5.5"><title>Car 18: actual $12,400, predicted $14,641</title></circle>
<circle cx="671.01" cy="147.64" r="5.5"><title>Car 29: actual $23,600, predicted $25,127</title></circle>
<circle cx="591.15" cy="255.35" r="5.5"><title>Car 32: actual $20,400, predicted $17,898</title></circle>
<circle cx="269.19" cy="387.09" r="5.5"><title>Car 36: actual $7,500, predicted $9,056</title></circle>
<circle cx="528.75" cy="287.10" r="5.5"><title>Car 95: actual $17,900, predicted $15,767</title></circle>
<circle cx="386.49" cy="333.93" r="5.5"><title>Car 4: actual $12,200, predicted $12,623</title></circle>
<circle cx="738.40" cy="144.78" r="5.5"><title>Car 15: actual $26,300, predicted $25,319</title></circle>
<circle cx="154.38" cy="456.08" r="5.5"><title>Car 82: actual $2,900, predicted $4,425</title></circle></g>
  <text x="474.0" y="576" text-anchor="middle" class="muted">Actual Price (USD)</text>
  <text transform="translate(24 288.0) rotate(-90)" text-anchor="middle" class="muted">Predicted Price (USD)</text>
</svg>
