<svg xmlns="http://www.w3.org/2000/svg" width="900" height="600" viewBox="0 0 900 600" role="img" aria-labelledby="title desc">
  <title id="title">Model 80 actual vs predicted prices</title>
  <desc id="desc">Scatter plot comparing actual test-set prices with predicted prices.</desc>
  <rect width="100%" height="100%" fill="#ffffff" />
  <style>
    text { font-family: Arial, Helvetica, sans-serif; fill: #17202a; }
    .muted { fill: #657383; font-size: 14px; }
    .axis { stroke: #657383; stroke-width: 1.4; }
    .grid { stroke: #d8e0e8; stroke-width: 1; }
    .perfect { stroke: #b42318; stroke-width: 2.2; stroke-dasharray: 8 7; }
    circle { fill: #0f766e; stroke: #17202a; stroke-width: 1; opacity: 0.88; }
  </style>
  <text x="450.0" y="30" text-anchor="middle" font-size="22" font-weight="700">Model 80: Test Set Actual vs Predicted Prices</text>
  <text x="450.0" y="52" text-anchor="middle" class="muted">Perfect predictions fall on the red dashed line.</text>
  <g class="grid">
    <line x1="82" y1="522.00" x2="866" y2="522.00" /><line x1="82" y1="405.00" x2="866" y2="405.00" /><line x1="82" y1="288.00" x2="866" y2="288.00" /><line x1="82" y1="171.00" x2="866" y2="171.00" /><line x1="82" y1="54.00" x2="866" y2="54.00" />
    <line x1="82.00" y1="54" x2="82.00" y2="522" /><line x1="278.00" y1="54" x2="278.00" y2="522" /><line x1="474.00" y1="54" x2="474.00" y2="522" /><line x1="670.00" y1="54" x2="670.00" y2="522" /><line x1="866.00" y1="54" x2="866.00" y2="522" />
  </g>
  <line class="perfect" x1="82.00" y1="522.00" x2="866.00" y2="54.00" />
  <g class="axis">
    <line x1="82" y1="522" x2="866" y2="522" />
    <line x1="82" y1="54" x2="82" y2="522" />
  </g>
  <g class="muted" text-anchor="middle">
        <g>
          <line x1="82.00" y1="522" x2="82.00" y2="528" />
          <text x="82.00" y="550">$591</text>
        </g>
        

        <g>
          <line x1="278.00" y1="522" x2="278.00" y2="528" />
          <text x="278.00" y="550">$7,511</text>
        </g>
        

        <g>
          <line x1="474.00" y1="522" x2="474.00" y2="528" />
          <text x="474.00" y="550">$14,431</text>
        </g>
        

        <g>
          <line x1="670.00" y1="522" x2="670.00" y2="528" />
          <text x="670.00" y="550">$21,351</text>
        </g>
        

        <g>
          <line x1="866.00" y1="522" x2="866.00" y2="528" />
          <text x="866.00" y="550">$28,271</text>
        </g>
        </g>
  <g class="muted" text-anchor="end">
        <g>
          <line x1="76" y1="522.00" x2="82" y2="522.00" />
          <text x="70" y="527.00">$591</text>
        </g>
        

        <g>
          <line x1="76" y1="405.00" x2="82" y2="405.00" />
          <text x="70" y="410.00">$7,511</text>
        </g>
        

        <g>
          <line x1="76" y1="288.00" x2="82" y2="288.00" />
          <text x="70" y="293.00">$14,431</text>
        </g>
        

        <g>
          <line x1="76" y1="171.00" x2="82" y2="171.00" />
          <text x="70" y="176.00">$21,351</text>
        </g>
        

        <g>
          <line x1="76" y1="54.00" x2="82" y2="54.00" />
          <text x="70" y="59.00">$28,271</text>
        </g>
        </g>
  <g><circle cx="136.07" cy="486.24" r="5.5"><title>Car 65: actual $2,500, predicted $2,706</title></circle>
<circle cx="787.50" cy="100.05" r="5.5"><title>Car 30: actual $25,500, predicted $25,548</title></circle>
<circle cx="487.28" cy="278.64" r="5.5"><title>Car 28: actual $14,900, predicted $14,985</title></circle>
<circle cx="323.00" cy="338.96" r="5.5"><title>Car 89: actual $9,100, predicted $11,417</title></circle>
<circle cx="643.06" cy="175.86" r="5.5"><title>Car 98: actual $20,400, predicted $21,064</title></circle>
<circle cx="464.62" cy="293.82" r="5.5"><title>Car 5: actual $14,100, predicted $14,087</title></circle>
<circle cx="320.17" cy="357.27" r="5.5"><title>Car 55: actual $9,000, predicted $10,334</title></circle>
<circle cx="764.85" cy="86.28" r="5.5"><title>Car 76: actual $24,700, predicted $26,362</title></circle>
<circle cx="385.31" cy="304.12" r="5.5"><title>Car 12: actual $11,300, predicted $13,478</title></circle>
<circle cx="274.85" cy="417.41" r="5.5"><title>Car 70: actual $7,400, predicted $6,777</title></circle>
<circle cx="433.46" cy="321.65" r="5.5"><title>Car 87: actual $13,000, predicted $12,441</title></circle>
<circle cx="167.22" cy="422.63" r="5.5"><title>Car 14: actual $3,600, predicted $6,468</title></circle>
<circle cx="416.47" cy="283.75" r="5.5"><title>Car 18: actual $12,400, predicted $14,682</title></circle>
<circle cx="733.69" cy="105.52" r="5.5"><title>Car 29: actual $23,600, predicted $25,224</title></circle>
<circle cx="643.06" cy="228.70" r="5.5"><title>Car 32: actual $20,400, predicted $17,939</title></circle>
<circle cx="277.69" cy="377.93" r="5.5"><title>Car 36: actual $7,500, predicted $9,112</title></circle>
<circle cx="572.25" cy="263.80" r="5.5"><title>Car 95: actual $17,900, predicted $15,862</title></circle>
<circle cx="410.80" cy="318.00" r="5.5"><title>Car 4: actual $12,200, predicted $12,657</title></circle>
<circle cx="810.16" cy="101.95" r="5.5"><title>Car 15: actual $26,300, predicted $25,435</title></circle>
<circle cx="147.40" cy="457.44" r="5.5"><title>Car 82: actual $2,900, predicted $4,409</title></circle></g>
  <text x="474.0" y="576" text-anchor="middle" class="muted">Actual Price (USD)</text>
  <text transform="translate(24 288.0) rotate(-90)" text-anchor="middle" class="muted">Predicted Price (USD)</text>
</svg>
